<svg xmlns="http://www.w3.org/2000/svg" fill="none" viewBox="0 0 54 101"><path fill="#fff" fill-opacity=".3" d="M3.154 0c27.842 0 50.412 22.57 50.412 50.412s-22.57 50.412-50.412 50.412z"/><g fill="#fff" filter="url(#a)"><mask id="b"><path d="m4 84.13 37.739-34.565L4 15"/></mask><path d="M10.754 91.505c-4.073 3.73-10.398 3.453-14.128-.62s-3.453-10.398.62-14.129L4 84.131zm30.985-41.94 6.754-7.374a10 10 0 0 1 0 14.749zm-44.493-27.19c-4.073-3.73-4.35-10.056-.62-14.13 3.73-4.072 10.055-4.35 14.128-.62L4 15zM4 84.13l-6.754-7.375 37.739-34.565 6.754 7.374 6.754 7.375-37.739 34.565zm37.739-34.566-6.754 7.375-37.74-34.566L4 15l6.754-7.374 37.74 34.565z" mask="url(#b)"/></g><defs><filter id="a" width="45.739" height="77.131" x="0" y="15" color-interpolation-filters="sRGB" filterUnits="userSpaceOnUse"><feFlood flood-opacity="0" result="BackgroundImageFix"/><feColorMatrix in="SourceAlpha" result="hardAlpha" values="0 0 0 0 0 0 0 0 0 0 0 0 0 0 0 0 0 0 127 0"/><feOffset dy="4"/><feGaussianBlur stdDeviation="2"/><feComposite in2="hardAlpha" operator="out"/><feColorMatrix values="0 0 0 0 0 0 0 0 0 0 0 0 0 0 0 0 0 0 0.25 0"/><feBlend in2="BackgroundImageFix" result="effect1_dropShadow_11_457"/><feBlend in="SourceGraphic" in2="effect1_dropShadow_11_457" result="shape"/></filter></defs></svg>